<?xml version="1.0" encoding="UTF-8" standalone="no"?>
<svg xmlns:svg="http://www.w3.org/2000/svg" xmlns="http://www.w3.org/2000/svg" xmlns:xlink="http://www.w3.org/1999/xlink" width="32" height="32" viewBox="0 0 200 200">
    <defs>
        <linearGradient id="linearGradient3352" gradientUnits="userSpaceOnUse" gradientTransform="matrix(6.4452 7.1612 -7.1612 6.4452 25.963 -53.066)">
            <stop style="stop-color:#68250a" offset="0" />
            <stop style="stop-color:#953418" offset=".60135" />
            <stop style="stop-color:#4d1c08" offset=".97752" />
            <stop style="stop-color:#4d1c08" offset="1" />
        </linearGradient>
        <linearGradient id="linearGradient3933" y2="127.58" gradientUnits="userSpaceOnUse" x2="214.68" gradientTransform="matrix(-1.0463 0 0 1.0463 548.56 457.65)" y1="617.83" x1="550.4">
            <stop style="stop-color:#000000" offset="0" />
            <stop style="stop-color:#aa0000" offset="1" />
        </linearGradient>
        <linearGradient id="linearGradient3937" xlink:href="#linearGradient3352" gradientUnits="userSpaceOnUse" gradientTransform="matrix(2.8128 3.0164 -3.0164 2.8128 225.24 -279.61)" />
        <linearGradient id="linearGradient3939" y2="616.36" gradientUnits="userSpaceOnUse" x2="444.71" y1="616.36" x1="158.26">
            <stop style="stop-color:#ff0000" offset="0" />
            <stop style="stop-color:#aa0000" offset="1" />
        </linearGradient>
        <linearGradient id="linearGradient3941" y2="652.38" gradientUnits="userSpaceOnUse" x2="37.12" gradientTransform="translate(3.7809e-7 -1.2995)" y1="721.25" x1="288.67">
            <stop style="stop-color:#d40000" offset="0" />
            <stop style="stop-color:#ff0000" offset="1" />
        </linearGradient>
        <linearGradient id="linearGradient3943" y2="662.93" gradientUnits="userSpaceOnUse" x2="88.121" y1="831.86" x1="120.67">
            <stop style="stop-color:#aa0000" offset="0" />
            <stop style="stop-color:#ee0000" offset="1" />
        </linearGradient>
        <linearGradient id="linearGradient3953" y2="-274.57" gradientUnits="userSpaceOnUse" x2="229.93" y1="-281.03" x1="224.53">
            <stop style="stop-color:#f9f9f9" offset="0" />
            <stop style="stop-color:#f9f9f9;stop-opacity:0" offset="1" />
        </linearGradient>
    </defs>
    <svg width="200" heigth="200" viewBox="0 0 200 200">
        <g transform="scale(.33) translate(339,-148) rotate(49) translate(-27.93 -563.44)">
            <g transform="translate(-.010934 -1.5017)">
                <path style="fill:black" d="m444.71 570.59l-1.2262 2.043s-20.059 6.104-38.819 25.744c-26.152 27.378-24.517 46.174-24.517 46.174s-35.426 26.73-60.068 55.981c-56.799 67.423-56.799 93.574-56.799 93.574s-34.658 22.141-55.164 42.905c-64.971 65.789-77.639 103.38-77.639 103.38s-4.6696-3.7819-22.882 7.7631c-45.766 29.013-63.746 78.865-63.746 78.865s53.938-273.78 95.619-313.82c41.679-40.045 305.24-142.61 305.24-142.61z" />
                <path style="fill:url(#linearGradient3933)" d="m444.71 570.59-1.2262 2.043s-20.059 6.104-38.819 25.744c-26.152 27.378-24.517 46.174-24.517 46.174s-35.426 26.73-60.068 55.981c-56.799 67.423-56.799 93.574-56.799 93.574s-34.658 22.141-55.164 42.905c-64.971 65.789-77.639 103.38-77.639 103.38s-4.6696-3.7819-22.882 7.7631c-45.766 29.013-63.746 78.865-63.746 78.865s6.5068-257.53 73.527-331.37c41.679-40.045 327.33-125.07 327.33-125.07z" />
                <g transform="matrix(-1.3079 0 0 1.3079 472.26 1040.9)" />
                <path style="fill:none" d="m393.77 937.13l-305.65-270.78s-3.2685 3.8139-3.2685 3.8139l305.11 270.24 3.8139-3.2685z" />
                <path style="fill:none" d="m123.12 689.5l-31.872-25.335h-2.861s-4.9034 5.3121-4.9034 5.3121l0.40872 2.4523 29.013 26.56 10.215-8.9899z" />
                <path style="fill:white" d="m111.68 697.68s-29.83 34.733-61.294 116.46c-33.491 86.99-6.5382 212.89-6.5382 212.89s3.6785-28.604 11.033-37.185c7.3557-8.5818 8.1731 2.0423 8.1731 2.0423s-18.389-71.099-14.303-147.1c3.5112-65.29 62.929-147.1 62.929-147.1z" />
                <path style="stroke:#a00;stroke-width:1.3079;fill:#d40000" d="m111.68 697.68s-29.83 34.733-61.294 116.46c-33.491 86.99-6.5382 212.89-6.5382 212.89s0.42974-19.508 7.7841-28.088c7.3557-8.5818 11.422-7.0541 11.422-7.0541s-18.389-71.099-14.303-147.1c3.5112-65.29 62.929-147.1 62.929-147.1z" />
                <path style="fill:url(#linearGradient3939)" d="m444.71 570.59s-113.02 2.6037-163.86 17.571c-80.499 23.7-122.59 73.96-122.59 73.96s27.504-31.501 66.606-39.636c60.885-12.667 161.81 1.6342 161.81 1.6342s-6.1289-10.215 12.668-28.195 45.357-25.335 45.357-25.335z" />
                <path style="stroke:maroon;stroke-width:1.3079;fill:none" d="m444.71 570.59s-113.02 2.6037-163.86 17.571c-80.499 23.7-122.59 73.96-122.59 73.96s27.504-31.501 66.606-39.636c60.885-12.667 161.81 1.6342 161.81 1.6342s-6.1289-10.215 12.668-28.195 45.357-25.335 45.357-25.335z" />
                <path style="fill:url(#linearGradient3941)" d="m114.54 692.29s56.799-59.659 101.75-72.735c44.949-13.076 170.4 3.2685 170.4 3.2685s-36.928 18.921-91.532 80.091c-64.562 72.326-79.681 109.51-79.681 109.51s-75.188-76.003-90.307-98.886c-7.8845-11.933-10.624-21.248-10.624-21.248z" />
                <path style="stroke:maroon;stroke-width:1.3079;fill:none" d="m114.54 693.59s56.799-59.659 101.75-72.735c44.949-13.076 170.4 3.2685 170.4 3.2685s-36.928 18.921-91.532 80.091c-64.562 72.326-79.681 109.51-79.681 109.51s-75.188-76.003-90.307-98.886c-7.8845-11.933-10.624-21.248-10.624-21.248z" />
                <path style="fill:url(#linearGradient3943)" d="m114.54 693.59s-43.314 55.572-56.798 93.574c-25.097 70.726 5.7208 206.35 5.7208 206.35s30.238-58.842 68.24-105.02c43.19-52.48 83.768-74.779 83.768-74.779s-77.23-78.046-90.307-98.886c-13.075-20.84-10.624-21.248-10.624-21.248z" />
                <path style="stroke:maroon;stroke-width:1.3079;fill:none" d="m114.54 693.59s-43.314 55.572-56.798 93.574c-25.097 70.726 5.7208 206.35 5.7208 206.35s30.238-58.842 68.24-105.02c43.19-52.48 83.768-74.779 83.768-74.779s-77.23-78.046-90.307-98.886c-13.075-20.84-10.624-21.248-10.624-21.248z" />
            </g>
        </g>
    </svg>
    <svg x="17" y="74" width="190" height="125" viewBox='481 485 39 30'>
        <text font-size='0'>M520x515S10010481x485S2e730504x490</text>
        <svg x='482' y='485'><g><path d='M13,0l2,0l0,15l-2,0z' class='sym-line' /><path d='M0,15l15,0l0,15l-15,0z' class='sym-line' /><path d='M2,17l6,0l0,11l-6,0z' fill='#ffffff' class='sym-fill' /></g></svg>
        <svg x='499' y='490'><g><path d='M 5.5 8.5 L 0 14 L 11 14 L 5.5 8.5 z ' class='sym-line' /><path d='M 9.5 0 C 7.1955445 0 5.3267658 3.2813881 5.0625 7.5 L 7.03125 7.5 C 7.1967286 3.8390341 8.2342976 1 9.5 1 C 10.880712 1 12 4.3578644 12 8.5 L 12 16.5 C 12 20.642136 10.880712 24 9.5 24 C 8.1192881 24 7 20.642136 7 16.5 L 7 15 L 5 15 L 5 16.5 C 5 21.19442 7.0147186 25 9.5 25 L 11.5 25 C 13.985281 25 16 21.19442 16 16.5 L 16 8.5 C 16 3.8055796 13.985281 0 11.5 0 L 9.5 0 z ' class='sym-line' /></g></svg>
    </svg>
</svg>
