<?xml version="1.0" encoding="UTF-8" standalone="no"?>
<svg xmlns:svg="http://www.w3.org/2000/svg" xmlns="http://www.w3.org/2000/svg" xmlns:xlink="http://www.w3.org/1999/xlink" viewBox="0 0 200 200">
    <defs>
        <linearGradient id="linearGradient3352" gradientUnits="userSpaceOnUse" gradientTransform="matrix(6.4452 7.1612 -7.1612 6.4452 25.963 -53.066)">
            <stop style="stop-color:#68250a" offset="0" />
            <stop style="stop-color:#953418" offset=".60135" />
            <stop style="stop-color:#4d1c08" offset=".97752" />
            <stop style="stop-color:#4d1c08" offset="1" />
        </linearGradient>
        <linearGradient id="linearGradient3933" y2="127.58" gradientUnits="userSpaceOnUse" x2="214.68" gradientTransform="matrix(-1.0463 0 0 1.0463 548.56 457.65)" y1="617.83" x1="550.4">
            <stop style="stop-color:#000000" offset="0" />
            <stop style="stop-color:#aa0000" offset="1" />
        </linearGradient>
        <linearGradient id="linearGradient3937" xlink:href="#linearGradient3352" gradientUnits="userSpaceOnUse" gradientTransform="matrix(2.8128 3.0164 -3.0164 2.8128 225.24 -279.61)" />
        <linearGradient id="linearGradient3939" y2="616.36" gradientUnits="userSpaceOnUse" x2="444.71" y1="616.36" x1="158.26">
            <stop style="stop-color:#ff0000" offset="0" />
            <stop style="stop-color:#aa0000" offset="1" />
        </linearGradient>
        <linearGradient id="linearGradient3941" y2="652.38" gradientUnits="userSpaceOnUse" x2="37.12" gradientTransform="translate(3.7809e-7 -1.2995)" y1="721.25" x1="288.67">
            <stop style="stop-color:#d40000" offset="0" />
            <stop style="stop-color:#ff0000" offset="1" />
        </linearGradient>
        <linearGradient id="linearGradient3943" y2="662.93" gradientUnits="userSpaceOnUse" x2="88.121" y1="831.86" x1="120.67">
            <stop style="stop-color:#aa0000" offset="0" />
            <stop style="stop-color:#ee0000" offset="1" />
        </linearGradient>
        <linearGradient id="linearGradient3953" y2="-274.57" gradientUnits="userSpaceOnUse" x2="229.93" y1="-281.03" x1="224.53">
            <stop style="stop-color:#f9f9f9" offset="0" />
            <stop style="stop-color:#f9f9f9;stop-opacity:0" offset="1" />
        </linearGradient>
    </defs>
    <svg width="200" heigth="200" viewBox="0 0 200 200">
        <g transform="scale(.24) translate(455,-90) rotate(49) translate(-27.93 -563.44)">
            <g transform="translate(-.010934 -1.5017)">
                <path style="fill:black" d="m444.71 570.59l-1.2262 2.043s-20.059 6.104-38.819 25.744c-26.152 27.378-24.517 46.174-24.517 46.174s-35.426 26.73-60.068 55.981c-56.799 67.423-56.799 93.574-56.799 93.574s-34.658 22.141-55.164 42.905c-64.971 65.789-77.639 103.38-77.639 103.38s-4.6696-3.7819-22.882 7.7631c-45.766 29.013-63.746 78.865-63.746 78.865s53.938-273.78 95.619-313.82c41.679-40.045 305.24-142.61 305.24-142.61z" />
                <path style="fill:url(#linearGradient3933)" d="m444.71 570.59-1.2262 2.043s-20.059 6.104-38.819 25.744c-26.152 27.378-24.517 46.174-24.517 46.174s-35.426 26.73-60.068 55.981c-56.799 67.423-56.799 93.574-56.799 93.574s-34.658 22.141-55.164 42.905c-64.971 65.789-77.639 103.38-77.639 103.38s-4.6696-3.7819-22.882 7.7631c-45.766 29.013-63.746 78.865-63.746 78.865s6.5068-257.53 73.527-331.37c41.679-40.045 327.33-125.07 327.33-125.07z" />
                <g transform="matrix(-1.3079 0 0 1.3079 472.26 1040.9)" />
                <path style="fill:none" d="m393.77 937.13l-305.65-270.78s-3.2685 3.8139-3.2685 3.8139l305.11 270.24 3.8139-3.2685z" />
                <path style="fill:none" d="m123.12 689.5l-31.872-25.335h-2.861s-4.9034 5.3121-4.9034 5.3121l0.40872 2.4523 29.013 26.56 10.215-8.9899z" />
                <path style="fill:white" d="m111.68 697.68s-29.83 34.733-61.294 116.46c-33.491 86.99-6.5382 212.89-6.5382 212.89s3.6785-28.604 11.033-37.185c7.3557-8.5818 8.1731 2.0423 8.1731 2.0423s-18.389-71.099-14.303-147.1c3.5112-65.29 62.929-147.1 62.929-147.1z" />
                <path style="stroke:#a00;stroke-width:1.3079;fill:#d40000" d="m111.68 697.68s-29.83 34.733-61.294 116.46c-33.491 86.99-6.5382 212.89-6.5382 212.89s0.42974-19.508 7.7841-28.088c7.3557-8.5818 11.422-7.0541 11.422-7.0541s-18.389-71.099-14.303-147.1c3.5112-65.29 62.929-147.1 62.929-147.1z" />
                <path style="fill:url(#linearGradient3939)" d="m444.71 570.59s-113.02 2.6037-163.86 17.571c-80.499 23.7-122.59 73.96-122.59 73.96s27.504-31.501 66.606-39.636c60.885-12.667 161.81 1.6342 161.81 1.6342s-6.1289-10.215 12.668-28.195 45.357-25.335 45.357-25.335z" />
                <path style="stroke:maroon;stroke-width:1.3079;fill:none" d="m444.71 570.59s-113.02 2.6037-163.86 17.571c-80.499 23.7-122.59 73.96-122.59 73.96s27.504-31.501 66.606-39.636c60.885-12.667 161.81 1.6342 161.81 1.6342s-6.1289-10.215 12.668-28.195 45.357-25.335 45.357-25.335z" />
                <path style="fill:url(#linearGradient3941)" d="m114.54 692.29s56.799-59.659 101.75-72.735c44.949-13.076 170.4 3.2685 170.4 3.2685s-36.928 18.921-91.532 80.091c-64.562 72.326-79.681 109.51-79.681 109.51s-75.188-76.003-90.307-98.886c-7.8845-11.933-10.624-21.248-10.624-21.248z" />
                <path style="stroke:maroon;stroke-width:1.3079;fill:none" d="m114.54 693.59s56.799-59.659 101.75-72.735c44.949-13.076 170.4 3.2685 170.4 3.2685s-36.928 18.921-91.532 80.091c-64.562 72.326-79.681 109.51-79.681 109.51s-75.188-76.003-90.307-98.886c-7.8845-11.933-10.624-21.248-10.624-21.248z" />
                <path style="fill:url(#linearGradient3943)" d="m114.54 693.59s-43.314 55.572-56.798 93.574c-25.097 70.726 5.7208 206.35 5.7208 206.35s30.238-58.842 68.24-105.02c43.19-52.48 83.768-74.779 83.768-74.779s-77.23-78.046-90.307-98.886c-13.075-20.84-10.624-21.248-10.624-21.248z" />
                <path style="stroke:maroon;stroke-width:1.3079;fill:none" d="m114.54 693.59s-43.314 55.572-56.798 93.574c-25.097 70.726 5.7208 206.35 5.7208 206.35s30.238-58.842 68.24-105.02c43.19-52.48 83.768-74.779 83.768-74.779s-77.23-78.046-90.307-98.886c-13.075-20.84-10.624-21.248-10.624-21.248z" />
            </g>
        </g>
    </svg>
    <svg x="48" y="60" width="100" height="120" viewBox="477 465 46 69">
        <g transform="translate(483,509)">
            <g style="fill:#ffffff;">
                <path d="M 8.3,9.5 C 9.2333241,8.4999915 9.6999903,7.999992 9.7,8 c 0.066657,-8e-6 0.566656,0.4999915 1.5,1.5 l 1.3,1.4 -1.3,0.1 c -0.933344,-1.1e-5 -1.866676,-1.1e-5 -2.8,0 L 7,10.9 8.3,9.5 m 0,5.9 c 0.9333241,-1.000014 1.3999903,-1.500014 1.4,-1.5 0.066657,-1.4e-5 0.566656,0.499986 1.5,1.5 l 1.3,1.4 -1.3,0.1 c -0.933344,-1.7e-5 -1.866676,-1.7e-5 -2.8,0 L 7,16.8 8.3,15.4" style="fill:#ffffff;" />
            </g>
            <g style="fill:#000000;">
                <path d="M 3.3,0.3 C 3.5666631,0.1666665 4.1999958,0.0999999 5.2,0.1 c 0.9999938,-1e-7 1.6666598,0.0999998 2,0.3 C 7.8666588,0.7999992 8.4666582,1.5333318 9,2.6 9.5999904,3.8666628 9.8999901,4.7999952 9.9,5.4 9.8999901,5.5333278 9.5999904,5.5999944 9,5.6 8.3999916,5.5999944 8.0999919,5.4999945 8.1,5.3 8.0999919,5.2999947 8.0333253,4.9666617 7.9,4.3 7.4333259,2.2333311 6.8333265,1.1999988 6.1,1.2 5.0999949,1.1999988 4.3999956,2.8333305 4,6.1 3.8666628,7.0333263 3.7999962,9.1333242 3.8,12.4 c -3.8e-6,3.333318 0.066663,5.466649 0.2,6.4 0.3999956,3.266645 1.0999949,4.899976 2.1,4.9 0.4666601,-2.4e-5 0.899993,-0.533356 1.3,-1.6 0.4666588,-1.200021 0.6999919,-2.20002 0.7,-3 l 0,-0.3 1,0 1,0 -0.2,0.9 C 9.3666573,22.166644 8.4666582,23.766643 7.2,24.5 6.8666598,24.699975 6.1999938,24.799975 5.2,24.8 4.1999958,24.799975 3.5666631,24.733309 3.3,24.6 1.8333315,23.866643 0.8333325,21.933311 0.3,18.8 0.2333331,18.133315 0.1999998,15.999984 0.2,12.4 0.1999998,8.8666578 0.2333331,6.7666599 0.3,6.1 0.8333325,2.9666637 1.8333315,1.0333323 3.3,0.3 m 3.8,9 C 8.8333245,7.4333259 9.7333236,6.5333268 9.8,6.6 c -9.8e-6,-6.6e-6 0.39999,0.4333263 1.2,1.3 0.866655,0.8666579 1.699987,1.7333237 2.5,2.6 0.866652,0.933322 1.299985,1.399988 1.3,1.4 -1.5e-5,0.06665 -1.700013,0.09999 -5.1,0.1 L 4.6,12 7.1,9.3 m 4.7,0.9 C 11.133322,9.4666572 10.699989,8.9666577 10.5,8.7 L 9.7,7.9 8.8,9 C 8.5333248,9.1999908 8.0666586,9.6999903 7.4,10.5 l -0.5,0.5 2.8,0 2.8,0 -0.7,-0.8 m -4.7,5 c 1.7333245,-1.86668 2.6333236,-2.766679 2.7,-2.7 -9.8e-6,-1.2e-5 0.39999,0.43332 1.2,1.3 0.866655,0.866652 1.699987,1.733318 2.5,2.6 0.866652,0.933316 1.299985,1.399982 1.3,1.4 -1.5e-5,0.06665 -1.700013,0.09998 -5.1,0.1 l -5.1,0 2.5,-2.7 m 4.7,0.9 C 11.133322,15.366651 10.699989,14.866652 10.5,14.6 L 9.7,13.8 8.8,14.9 c -0.2000086,0.199985 -0.6666748,0.699984 -1.4,1.5 l -0.5,0.5 2.8,0 2.8,0 -0.7,-0.8" style="fill:#000000;" />
            </g>
        </g>
        <g transform="translate(502,465)">
            <g style="fill:#ffffff;">
                <path d="m 6,18 1.9,-2 2.2,2.3 c 0.333323,0.266648 0.666656,0.599981 1,1 0.399989,0.39998 0.733322,0.733313 1,1 0.266654,0.333313 0.533321,0.633312 0.8,0.9 0.33332,0.333312 0.599987,0.566645 0.8,0.7 l 1.2,1.3 -1.9,2 -1.9,1.9 L 8,24 C 5.8666608,21.799978 4.7333286,20.599979 4.6,20.4 L 4.1,19.9 6,18" style="fill:#ffffff;" />
            </g>
            <g style="fill:#000000;">
                <path d="M 0.8,0.8 C 1.2666654,0.333333 1.4999985,0.0999999 1.5,0.1 c 0.066665,-1e-7 2.9999955,3.0333302 8.8,9.1 5.86665,6.066651 9.199981,9.466648 10,10.2 L 20.7,20 16,24.8 c -3.133346,3.266639 -4.766678,4.89997 -4.9,4.9 -0.133344,-3e-5 -1.766676,-1.633361 -4.9,-4.9 L 1.5,20 1.9,19.4 C 2.1666645,19.199981 3.5666631,17.799982 6.1,15.2 L 9.7,11.4 5,6.5 0.2,1.5 0.8,0.8 M 10.9,19.1 C 8.9666577,17.033316 7.9666587,15.999984 7.9,16 c -0.066675,-1.6e-5 -0.7333405,0.633317 -2,1.9 -1.2000047,1.333314 -1.7666708,2.033313 -1.7,2.1 -4.2e-6,0.06665 1.133328,1.266645 3.4,3.6 2.2666568,2.333307 3.433322,3.499973 3.5,3.5 0.06666,-2.7e-5 0.733322,-0.63336 2,-1.9 l 1.8,-1.9 -0.5,-0.6 c -0.200014,-0.266689 -1.36668,-1.466688 -3.5,-3.6" style="fill:#000000;" />
            </g>
        </g>
        <g transform="translate(508,499)">
            <g style="fill:#ffffff;">
                <path d="m 3.5,0.3 c 0.2666629,-0.1333335 0.9333289,-0.2000001 2,-0.2 1.0666601,-1e-7 1.7333261,0.0666665 2,0.2 0.9999915,0.4666659 1.7999907,1.4999982 2.4,3.1 0.466656,1.1333288 0.699989,1.9666613 0.7,2.5 -1.1e-5,0.1333273 -0.6666766,0.1999939 -2,0.2 C 7.333326,6.0999939 6.6999933,6.0666606 6.7,6 6.6999933,5.999994 6.66666,5.6333277 6.6,4.9 6.0666606,2.3666643 5.333328,1.1333322 4.4,1.2 3.999996,1.2666654 3.5999964,1.666665 3.2,2.4 2.4666642,3.999996 2.0999979,7.333326 2.1,12.4 c -2.1e-6,5.133316 0.3666642,8.499979 1.1,10.1 0.6666628,1.266643 1.3333288,1.533309 2,0.8 0.466661,-0.466689 0.8666606,-1.333355 1.2,-2.6 l 0.2,-0.9 1.9,0 c 1.2666569,-2e-5 1.89999,0.06665 1.9,0.2 -10e-6,0.333313 -0.233344,1.033312 -0.7,2.1 -0.6000091,1.199977 -1.3000084,1.999976 -2.1,2.4 -0.3333406,0.199975 -1.0333399,0.299975 -2.1,0.3 -1.0666711,-2.5e-5 -1.7333371,-0.06669 -2,-0.2 C 1.9666647,23.866643 0.8999991,21.999978 0.3,19 0.1666665,18.266648 0.0999999,16.066651 0.1,12.4 0.0999999,8.7999912 0.1666665,6.6333267 0.3,5.9 0.8999991,2.8999971 1.9666647,1.0333323 3.5,0.3 M 5.9,10 3,7 l 5.9,0 5.8,0 -2.9,3 -2.9,2.9 2.9,0 2.9,0 -2.9,3 -2.9,3 -2.9,-3 -3,-3 2.9,0 2.9,0 L 5.9,10" style="fill:#ffffff;" />
            </g>
            <g style="fill:#000000;">
                <path d="m 3.5,0.3 c 0.2666629,-0.1333335 0.9333289,-0.2000001 2,-0.2 1.0666601,-1e-7 1.7333261,0.0666665 2,0.2 0.9999915,0.4666659 1.7999907,1.4999982 2.4,3.1 0.466656,1.1333288 0.699989,1.9666613 0.7,2.5 -1.1e-5,0.1333273 -0.6666766,0.1999939 -2,0.2 C 7.333326,6.0999939 6.6999933,6.0666606 6.7,6 6.6999933,5.999994 6.66666,5.6333277 6.6,4.9 6.0666606,2.3666643 5.333328,1.1333322 4.4,1.2 3.999996,1.2666654 3.5999964,1.666665 3.2,2.4 2.4666642,3.999996 2.0999979,7.333326 2.1,12.4 c -2.1e-6,5.133316 0.3666642,8.499979 1.1,10.1 0.6666628,1.266643 1.3333288,1.533309 2,0.8 0.466661,-0.466689 0.8666606,-1.333355 1.2,-2.6 l 0.2,-0.9 1.9,0 c 1.2666569,-2e-5 1.89999,0.06665 1.9,0.2 -10e-6,0.333313 -0.233344,1.033312 -0.7,2.1 -0.6000091,1.199977 -1.3000084,1.999976 -2.1,2.4 -0.3333406,0.199975 -1.0333399,0.299975 -2.1,0.3 -1.0666711,-2.5e-5 -1.7333371,-0.06669 -2,-0.2 C 1.9666647,23.866643 0.8999991,21.999978 0.3,19 0.1666665,18.266648 0.0999999,16.066651 0.1,12.4 0.0999999,8.7999912 0.1666665,6.6333267 0.3,5.9 0.8999991,2.8999971 1.9666647,1.0333323 3.5,0.3 M 5.9,10 3,7 l 5.9,0 5.8,0 -2.9,3 -2.9,2.9 2.9,0 2.9,0 -2.9,3 -2.9,3 -2.9,-3 -3,-3 2.9,0 2.9,0 L 5.9,10" style="fill:#000000;" />
            </g>
        </g>
        <g transform="translate(477,474)">
            <g style="fill:#ffffff;">
                <path d="m 12,17 1,-1 1,1 c 0.799985,0.799982 1.433318,1.466648 1.9,2 l 0.9,1 -3.5,3.6 -3.5,3.6 -1.9,-2 -1.9,-2 2.5,-2.5 C 10.566656,18.499981 11.733322,17.266649 12,17" style="fill:#ffffff;" />
            </g>
            <g style="fill:#000000;">
                <path d="m 10.7,9 c 5.733317,-5.8666698 8.599981,-8.8333335 8.6,-8.9 0.06665,-1e-7 0.333314,0.233333 0.8,0.7 l 0.7,0.7 -4.8,4.9 -4.8,5 3.5,3.7 c 2.533316,2.533316 3.933315,3.933314 4.2,4.2 l 0.6,0.6 -4.8,5 c -3.133345,3.266638 -4.7666766,4.89997 -4.9,4.9 -0.133343,-3e-5 -1.7666747,-1.633362 -4.9,-4.9 L 0.2,20 1.2,18.9 C 2.1333312,17.899982 5.2999947,14.599985 10.7,9 m 6,11 c 0.06665,-0.06669 -0.53335,-0.733353 -1.8,-2 -1.200014,-1.266683 -1.833346,-1.933349 -1.9,-2 -1.3e-5,-1.6e-5 -0.466679,0.46665 -1.4,1.4 -0.933344,0.933315 -1.933343,1.933314 -3,3 -1.0666742,1.133312 -1.8000068,1.899978 -2.2,2.3 L 6,23.3 7.8,25.2 c 1.2666576,1.26664 1.9333236,1.899973 2,1.9 -9.8e-6,-2.7e-5 0.566656,-0.600026 1.7,-1.8 1.199987,-1.133357 2.366653,-2.300023 3.5,-3.5 1.133317,-1.133354 1.699983,-1.733353 1.7,-1.8" style="fill:#000000;" />
            </g>
        </g>
    </svg>
</svg>
